<?xml version="1.0" standalone="no"?><!DOCTYPE svg PUBLIC "-//W3C//DTD SVG 1.1//EN" "http://www.w3.org/Graphics/SVG/1.1/DTD/svg11.dtd"><svg t="1765295128574" class="icon" viewBox="0 0 1024 1024" version="1.1" xmlns="http://www.w3.org/2000/svg" p-id="1612" xmlns:xlink="http://www.w3.org/1999/xlink" width="200" height="200"><path d="M530.2 200.3h-33.8c-20.2 1.6-37.6 5.7-49.4 9.2l-158.1 84.6V155.8c0-24.5 20-44.5 44.6-44.5h111.6V44.5C445.1 20 465.2 0 489.8 0h44.7C559.1 0 579 19.9 579 44.5v66.8h111.6c24.7 0 44.7 19.9 44.7 44.5V298l-170.2-91.1c-11.7-3.6-23.4-5.6-34.9-6.6z m341 505.9c-63.7 15.3-154.9 43.4-242.3 92.7-124.5 70.3-131.6 56.1-226.9 8.6-83.7-41.7-164.6-68.4-225.5-84.7l-66.3-99.6c-67.6-89.5-81.9-129-44.6-155.8L445 267c43.2-21 87.3-23.9 134 0l379.5 200.4c24 19.8 44 59.7-29.6 155.8l-57.7 83z m132 206.8c0 24.5-20.1 44.3-44.7 44.3-7.2 0-13.9-1.8-19.9-4.8 0 0-53-39.5-114.1-39.5-70.6 0-156.3 66.5-156.3 66.5S621.5 1024 512 1024c-108.6 0-156.3-44.5-156.3-44.5s-99.4-70.4-156.2-66.5c0 0-51.5-15.6-114.1 39.5-6 3-12.7 4.8-19.9 4.8-24.6 0.1-44.5-19.7-44.5-44.3 0-17.3 6.5-33 22.3-44.3 0 0 130.6-151 334.8 0 0 0 65.2 44.3 111.6 44.3h44.7s53.9-5 111.6-44.3c57.6-39.4 193.2-128.1 334.8 0 14.8 8.6 22.4 27 22.4 44.3z" fill="#2170C1" p-id="1613"></path></svg>